<svg xmlns="http://www.w3.org/2000/svg" xmlns:xlink="http://www.w3.org/1999/xlink" viewBox="0 0 1200 1200"><defs><style>.cls-1{fill:none;}.cls-2{isolation:isolate;}.cls-3{clip-path:url(#clip-path);}.cls-4{fill:#ededf4;}.cls-5{fill:#f2f2f2;}.cls-6{fill:#98a39f;}.cls-7{fill:#fff;}.cls-8{fill:#49896c;}.cls-9{fill:#9fd8c0;}.cls-10{fill:#d4d9d7;}.cls-11{fill:#85a896;}.cls-12{fill:#1a4b98;}.cls-13{fill:#f485b7;}.cls-14{fill:#f1f29d;}.cls-15{fill:#0d096c;}.cls-16{fill:#262432;}.cls-17{opacity:0.35;mix-blend-mode:overlay;fill:url(#linear-gradient);}</style><clipPath id="clip-path"><rect class="cls-1" x="119.52" y="193.72" width="960.97" height="812.55"/></clipPath><linearGradient id="linear-gradient" x1="602.5" y1="271.63" x2="602.5" y2="877.68" gradientUnits="userSpaceOnUse"><stop offset="0" stop-color="#fef1ef"/><stop offset="1" stop-color="#fead9c"/></linearGradient></defs><g class="cls-2"><g id="Layer_1" data-name="Layer 1"><rect class="cls-1" width="1200" height="1200"/><g id="NI_Background_Abstract" data-name="NI Background Abstract"><g class="cls-3"><g class="cls-3"><path class="cls-4" d="M130.11,783.26c-22.79-57.61-9-132.7,43.4-165.71,22-13.84,49.93-20.54,64.83-41.82,33.06-52.57-14.5-146.93-22.66-216-32-270.68,314.92-142.5,445.15-84.27,74.64,33.36,221.91-73.37,302.26-58.23,119.76,22.58,116.1,154.58,100.72,245.46C1050,544.33,956.58,574,968.23,632.08c30.9,106,194.28,140.66,60,285.72-60.73,65.63-168,33.79-252.08,38.61-60.36,3.66-119.25,19.28-178.35,32.11-120.09,32.05-253.31,27.65-339.43-71.7-47.8-44.2-102.62-68.62-128.31-133.56"/></g></g></g><rect class="cls-5" x="379.06" y="303.16" width="551.6" height="593.68" rx="29.55"/><path class="cls-6" d="M901.11,303.16a29.55,29.55,0,0,1,29.55,29.55V867.29a29.55,29.55,0,0,1-29.55,29.55H408.61a29.55,29.55,0,0,1-29.55-29.55V332.71a29.55,29.55,0,0,1,29.55-29.55h492.5m0-5H408.61a34.59,34.59,0,0,0-34.55,34.55V867.29a34.59,34.59,0,0,0,34.55,34.55h492.5a34.59,34.59,0,0,0,34.55-34.55V332.71a34.59,34.59,0,0,0-34.55-34.55Z"/><circle class="cls-7" cx="494.96" cy="429.63" r="57.5"/><path class="cls-8" d="M495,377.13a52.5,52.5,0,1,1-52.5,52.5,52.56,52.56,0,0,1,52.5-52.5m0-5a57.5,57.5,0,1,0,57.5,57.5,57.5,57.5,0,0,0-57.5-57.5Z"/><circle class="cls-9" cx="494.96" cy="429.63" r="29.47"/><path class="cls-8" d="M495,405.16a24.47,24.47,0,1,1-24.48,24.47A24.49,24.49,0,0,1,495,405.16m0-5a29.47,29.47,0,1,0,29.47,29.47A29.47,29.47,0,0,0,495,400.16Z"/><rect class="cls-10" x="603.8" y="405.24" width="268.46" height="48.79" rx="22.24"/><circle class="cls-7" cx="494.96" cy="600" r="57.5"/><path class="cls-11" d="M495,547.5a52.5,52.5,0,1,1-52.5,52.5A52.56,52.56,0,0,1,495,547.5m0-5a57.5,57.5,0,1,0,57.5,57.5A57.5,57.5,0,0,0,495,542.5Z"/><rect class="cls-10" x="603.8" y="575.61" width="268.46" height="48.79" rx="22.24"/><circle class="cls-7" cx="494.96" cy="770.37" r="57.5"/><path class="cls-11" d="M495,717.87a52.5,52.5,0,1,1-52.5,52.5,52.56,52.56,0,0,1,52.5-52.5m0-5a57.5,57.5,0,1,0,57.5,57.5,57.5,57.5,0,0,0-57.5-57.5Z"/><rect class="cls-10" x="603.8" y="745.98" width="268.46" height="48.79" rx="22.24"/><rect class="cls-12" x="297.59" y="470.06" width="51.33" height="51.33" rx="25.67" transform="translate(706.7 946.52) rotate(172.72)"/><path class="cls-13" d="M317.38,556.59c9-1.06,18-1.89,27-2.71-2.88-13.84-5.55-27.73-8.4-41.58q-10.53,1.47-21.07,2.9C315.85,529,316.66,542.78,317.38,556.59Z"/><path class="cls-13" d="M345.38,525.05l-4.64.6c-10.47,1.33-30.12-4.78-31.46-15.25L308,500.56a19.12,19.12,0,0,1,16.54-21.38l4.64-.59a19.11,19.11,0,0,1,21.38,16.54l1.25,9.83C353.17,515.43,355.85,523.72,345.38,525.05Z"/><rect class="cls-12" x="319.5" y="474.13" width="36.88" height="19.99" rx="10" transform="translate(619.22 1003.22) rotate(-173.54)"/><rect class="cls-12" x="300.15" y="478.11" width="25.15" height="19.99" rx="10" transform="translate(798.68 804.18) rotate(155.69)"/><path class="cls-13" d="M315.21,506.75a8.25,8.25,0,0,1-8,9.64,10,10,0,0,1-10.56-8.57,8.26,8.26,0,0,1,8-9.64A10,10,0,0,1,315.21,506.75Z"/><path class="cls-13" d="M382.81,537.52l14.35-15.86,32.2-48.39-5.8-3.82-5.81-3.82L383,510.17l-14.57,10.67C371.25,524.08,382.12,536.76,382.81,537.52Z"/><path class="cls-13" d="M435,452.09h0a7.35,7.35,0,0,1,2.32,9.83l-5.39,9.26a7.33,7.33,0,0,1-10.37,2.44l-1-.64a7.34,7.34,0,0,1-1.88-10.49l6.37-8.62A7.33,7.33,0,0,1,435,452.09Z"/><path class="cls-14" d="M367.16,559.77l28.78-23.11-19.68-24.5a3.36,3.36,0,0,0-4.73-.12l-26,20.84a9.2,9.2,0,0,0-1.42,12.94l10.07,12.54A9.21,9.21,0,0,0,367.16,559.77Z"/><path class="cls-14" d="M291,536.86H369.6a0,0,0,0,1,0,0v85a11.21,11.21,0,0,1-11.21,11.21h-56.2A11.21,11.21,0,0,1,291,621.88v-85a0,0,0,0,1,0,0Z" transform="translate(660.57 1169.96) rotate(-180)"/><polygon class="cls-13" points="333.01 888.4 339.96 888.4 346.91 888.4 369.75 738.85 363.29 657.58 351.93 660.87 340.56 664.17 350.97 738.85 333.01 888.4"/><path class="cls-13" d="M379.2,896.84H332.07l.94-8.44h13.9S379.83,891.27,379.2,896.84Z"/><path class="cls-15" d="M333.52,883.93l-1.45,12.91h47.81c1.28-11.38-32.23-12.91-32.23-12.91Z"/><path class="cls-16" d="M359.85,869.88l-15.74.16-15.74.15,9.79-119.26L323.35,627.71h45.71c1.72,0,3.17-1.7,3.41,0l3.12,115.71Z"/><polygon class="cls-13" points="272.08 888.4 279.02 888.4 285.97 888.4 324.53 738.85 326.61 657.58 314.9 660.87 303.19 664.17 305.75 738.85 272.08 888.4"/><path class="cls-13" d="M317.38,896.84H270.24l1.84-8.44H286S318.59,891.27,317.38,896.84Z"/><path class="cls-15" d="M273.06,883.93l-2.81,12.91h47.81c2.47-11.38-30.87-12.91-30.87-12.91Z"/><path class="cls-16" d="M300.86,869.88,285.1,870l-15.76.15,22.33-119.26-1.86-123.22h45.7c1.73,0,3.42,0,3.42,0l-9.05,115.71Z"/><path class="cls-13" d="M389.57,564.12l2.5,6.49,2.49,6.48-68.5,26.51-37.42-39.41a12.45,12.45,0,0,1,.67-17.81l1.85-1.68.74-.67a12.46,12.46,0,0,1,18.64,2.19L333,579.05Z"/><path class="cls-13" d="M411.45,563.15h0a7.34,7.34,0,0,1-3.85,9.33l-9.77,4.39a7.35,7.35,0,0,1-9.86-4.06l-.42-1.09a7.34,7.34,0,0,1,4.6-9.62l10.19-3.3A7.34,7.34,0,0,1,411.45,563.15Z"/><path class="cls-14" d="M311.7,541.45l22.74,24.81-23.18,21.23a3.37,3.37,0,0,1-4.69-.6l-20.3-22.15a12.46,12.46,0,0,1,.78-17.6l7.05-6.46A12.45,12.45,0,0,1,311.7,541.45Z"/><path class="cls-17" d="M901.11,298.16H408.61a34.59,34.59,0,0,0-34.55,34.55V511.14a3.93,3.93,0,0,0-2.53.9l-26,20.84a9.14,9.14,0,0,0-2.86,4h-1.82l-2.22-11.05c.72,0,1.41-.08,2.07-.16l4.64-.6c10.47-1.33,7.79-9.62,6.45-20.09l-1.25-9.83c0-.32-.11-.63-.17-.94a10,10,0,0,0-3-19.05l-10.64-1.2A25.52,25.52,0,0,0,320,470.27h0A25.67,25.67,0,0,0,297.8,499h0c.11.83.26,1.64.44,2.44a8.42,8.42,0,0,0-1.6,6.4,10,10,0,0,0,10.56,8.57l.74-.08a25.78,25.78,0,0,0,7.26,3.79c.38,5.59.75,11.17,1.08,16.76h-14.1a11.19,11.19,0,0,0-9.26,4.9l-5.87,5.38a12.46,12.46,0,0,0-.78,17.6l4.7,5.12v57.85h-1.16l1.86,123.22L269.34,870.19l6.85-.06-3.11,13.8h0l-.73,3.35-.25,1.12-1.84,8.44h47.82c2.47-11.38-30.87-12.91-30.87-12.91h-.06L290.72,870l10.14-.1,29-126.46,2.91-37.17,5.37,44.68-9.79,119.26,6.84-.06-1.66,13.8h0l-.37,3.35L333,888.4l-.94,8.44h47.81c1.28-11.38-32.23-12.91-32.23-12.91h-.06L349.73,870l10.12-.1L374.06,755.7V867.29a34.59,34.59,0,0,0,34.55,34.55h492.5a34.59,34.59,0,0,0,34.55-34.55V332.71A34.59,34.59,0,0,0,901.11,298.16Z"/></g></g></svg>